<svg width="653" height="217" viewBox="0 0 653 217" fill="none" xmlns="http://www.w3.org/2000/svg">
<path d="M47.2373 216.114C43.2106 216.114 39.5866 215.409 36.3653 214C33.144 212.389 29.4193 209.772 25.1913 206.148C20.9633 202.323 17.5406 200.41 14.9233 200.41C11.702 200.41 9.08462 201.819 7.07129 204.638C5.05796 207.255 3.84996 210.376 3.44729 214H0.72929V118.568H3.44729C7.67529 150.983 13.4133 174.841 20.6613 190.142C28.1106 205.242 36.768 212.792 46.6333 212.792C49.0493 212.792 51.3646 211.987 53.5793 210.376C55.9953 208.765 57.908 206.148 59.3173 202.524C60.7266 198.9 61.4313 195.175 61.4313 191.35C61.4313 188.531 61.0286 184.907 60.2233 180.478C59.6193 176.049 58.21 170.814 55.9953 164.774C53.7806 158.734 51.264 153.097 48.4453 147.862C45.828 142.426 37.674 128.131 23.9833 104.978C10.2926 81.8247 3.44729 62.2953 3.44729 46.39C3.44729 37.7327 4.75596 29.78 7.37329 22.532C9.99062 15.284 13.4133 9.74733 17.6413 5.922C22.0706 2.09666 27.2046 0.183999 33.0433 0.183999C37.8753 0.183999 42.6066 1.89533 47.2373 5.31799C51.868 8.53933 55.492 10.15 58.1093 10.15C59.9213 10.15 61.834 9.64666 63.8473 8.64C65.8606 7.43199 67.27 5.41865 68.0753 2.59999H70.7933V79.912H68.0753L62.9413 53.336C55.0893 20.116 45.526 3.50599 34.2513 3.50599C26.3993 3.50599 22.4733 8.33799 22.4733 18.002C22.4733 21.2233 22.7753 25.3507 23.3793 30.384C23.9833 35.216 25.292 40.7527 27.3053 46.994C29.52 53.2353 31.936 58.9733 34.5533 64.208C37.1706 69.2413 45.0226 82.932 58.1093 105.28C71.196 127.628 77.7393 147.963 77.7393 166.284C77.7393 175.747 76.5313 184.303 74.1153 191.954C71.6993 199.605 68.2766 205.544 63.8473 209.772C59.418 214 53.8813 216.114 47.2373 216.114ZM161.681 214L144.769 94.408L135.407 214H116.683L88.8991 15.888C88.4965 13.0693 87.4898 10.5527 85.8791 8.33798C84.2685 6.12332 82.2551 5.01599 79.8391 5.01599H77.7251V2.59999H118.797V5.01599C117.79 5.01599 116.884 5.61999 116.079 6.82799C115.475 7.83465 115.274 9.14332 115.475 10.754L136.011 157.828L142.353 77.496L132.387 5.01599H127.253V2.59999H163.795V5.01599C161.379 5.01599 160.272 6.72733 160.473 10.15L181.009 157.828L191.881 46.994C192.888 37.5313 192.384 29.3773 190.371 22.532C188.559 15.4853 186.042 10.8547 182.821 8.64C179.801 6.42532 176.68 5.21732 173.459 5.01599V2.59999H219.665V5.01599H218.759C216.544 5.01599 213.927 6.02266 210.907 8.03599C207.887 10.0493 204.968 13.5727 202.149 18.606C199.532 23.438 197.921 28.3707 197.317 33.404L179.499 214H161.681ZM260.31 6.22399V210.376C260.31 210.98 260.713 211.383 261.518 211.584H268.766V214H225.882V211.584H233.13C233.935 211.383 234.338 210.98 234.338 210.376V6.22399C234.338 5.61999 233.935 5.21732 233.13 5.01599H225.882V2.59999H268.766V5.01599H261.518C260.713 5.21732 260.31 5.61999 260.31 6.22399ZM319.563 214H276.679V211.584H283.625C284.632 211.584 285.135 211.181 285.135 210.376V6.22399C285.135 5.41866 284.632 5.01599 283.625 5.01599H276.679V2.59999H348.555V74.476H345.837C344.629 65.0133 343.119 56.5573 341.307 49.108C339.697 42.464 337.583 35.6187 334.965 28.572C332.348 21.5253 329.227 15.888 325.603 11.66C321.979 7.23066 318.657 5.01599 315.637 5.01599H312.013C311.409 5.21732 311.107 5.61999 311.107 6.22399V102.26H312.315C316.543 102.26 320.973 98.8373 325.603 91.992C330.435 85.1467 333.053 75.4827 333.455 63H336.173V151.486H333.455C333.455 145.849 332.751 140.01 331.341 133.97C329.529 125.917 326.711 119.373 322.885 114.34C319.06 109.307 315.537 106.79 312.315 106.79H311.107V210.376C311.107 211.181 311.611 211.584 312.617 211.584H319.563V214ZM442.968 2.59999V79.912H439.948C439.948 72.664 438.942 63.302 436.928 51.826C435.116 40.1487 432.096 29.478 427.868 19.814C423.842 9.94866 419.614 5.01599 415.184 5.01599H413.976V210.376C413.976 210.98 414.379 211.383 415.184 211.584H422.432V214H379.548V211.584H386.796C387.602 211.383 388.004 210.98 388.004 210.376V5.01599H386.796C383.776 5.01599 380.454 7.93532 376.83 13.774C373.206 19.4113 369.884 28.9747 366.864 42.464C363.844 55.752 362.234 68.2347 362.032 79.912H359.012V2.59999H442.968ZM536.407 204.638L525.837 123.702H505.301L500.469 162.66C499.865 168.7 499.563 173.331 499.563 176.552C499.563 189.236 501.073 198.296 504.093 203.732C507.314 208.967 511.341 211.584 516.173 211.584H517.381V214H471.779V211.584H472.987C475.201 211.584 477.819 210.477 480.839 208.262C483.859 205.846 486.677 201.819 489.295 196.182C491.912 190.545 493.623 184.807 494.429 178.968L516.475 2.59999H535.501L562.077 200.712C562.479 203.531 563.486 206.047 565.097 208.262C566.909 210.477 569.123 211.584 571.741 211.584H575.063V214H527.951V211.584H530.971C532.38 211.584 533.689 211.081 534.897 210.074C536.105 208.866 536.608 207.054 536.407 204.638ZM515.267 43.068L505.603 120.078H525.233L515.267 43.068ZM623.321 214H580.437V211.584H587.383C588.39 211.584 588.893 211.181 588.893 210.376V6.22399C588.893 5.41866 588.39 5.01599 587.383 5.01599H580.437V2.59999H652.313V74.476H649.595C648.387 65.0133 646.877 56.5573 645.065 49.108C643.455 42.464 641.341 35.6187 638.723 28.572C636.106 21.5253 632.985 15.888 629.361 11.66C625.737 7.23066 622.415 5.01599 619.395 5.01599H615.771C615.167 5.21732 614.865 5.61999 614.865 6.22399V102.26H616.073C620.301 102.26 624.731 98.8373 629.361 91.992C634.193 85.1467 636.811 75.4827 637.213 63H639.931V151.486H637.213C637.213 145.849 636.509 140.01 635.099 133.97C633.287 125.917 630.469 119.373 626.643 114.34C622.818 109.307 619.295 106.79 616.073 106.79H614.865V210.376C614.865 211.181 615.369 211.584 616.375 211.584H623.321V214Z" fill="#222222"/>
</svg>
