<svg width="1124" height="179" viewBox="0 0 1124 179" fill="none" xmlns="http://www.w3.org/2000/svg">
<path d="M39.4326 178.75C36.0993 178.75 33.0993 178.167 30.4326 177C27.766 175.667 24.6826 173.5 21.1826 170.5C17.6826 167.333 14.8493 165.75 12.6826 165.75C10.016 165.75 7.84928 166.917 6.18262 169.25C4.51595 171.417 3.51595 174 3.18262 177H0.932617V98H3.18262C6.68262 124.833 11.4326 144.583 17.4326 157.25C23.5993 169.75 30.766 176 38.9326 176C40.9326 176 42.8493 175.333 44.6826 174C46.6826 172.667 48.266 170.5 49.4326 167.5C50.5993 164.5 51.1826 161.417 51.1826 158.25C51.1826 155.917 50.8493 152.917 50.1826 149.25C49.6826 145.583 48.516 141.25 46.6826 136.25C44.8493 131.25 42.766 126.583 40.4326 122.25C38.266 117.75 31.516 105.917 20.1826 86.75C8.84928 67.5833 3.18262 51.4167 3.18262 38.25C3.18262 31.0833 4.26595 24.5 6.43262 18.5C8.59928 12.5 11.4326 7.91666 14.9326 4.75C18.5993 1.58333 22.8493 -1.07288e-06 27.6826 -1.07288e-06C31.6826 -1.07288e-06 35.5993 1.41666 39.4326 4.24999C43.266 6.91666 46.266 8.25 48.4326 8.25C49.9326 8.25 51.516 7.83333 53.1826 7C54.8493 5.99999 56.016 4.33332 56.6826 1.99999H58.9326V66H56.6826L52.4326 44C45.9326 16.5 38.016 2.74999 28.6826 2.74999C22.1826 2.74999 18.9326 6.74999 18.9326 14.75C18.9326 17.4167 19.1826 20.8333 19.6826 25C20.1826 29 21.266 33.5833 22.9326 38.75C24.766 43.9167 26.766 48.6667 28.9326 53C31.0993 57.1667 37.5993 68.5 48.4326 87C59.266 105.5 64.6826 122.333 64.6826 137.5C64.6826 145.333 63.6826 152.417 61.6826 158.75C59.6826 165.083 56.8493 170 53.1826 173.5C49.516 177 44.9326 178.75 39.4326 178.75ZM134.171 177L120.171 78L112.421 177H96.9209L73.9209 13C73.5876 10.6667 72.7542 8.58333 71.4209 6.74999C70.0876 4.91666 68.4209 3.99999 66.4209 3.99999H64.6709V1.99999H98.6709V3.99999C97.8376 3.99999 97.0876 4.49999 96.4209 5.49999C95.9209 6.33332 95.7542 7.41665 95.9209 8.74999L112.921 130.5L118.171 64L109.921 3.99999H105.671V1.99999H135.921V3.99999C133.921 3.99999 133.004 5.41666 133.171 8.25L150.171 130.5L159.171 38.75C160.004 30.9167 159.588 24.1667 157.921 18.5C156.421 12.6667 154.338 8.83333 151.671 7C149.171 5.16666 146.588 4.16666 143.921 3.99999V1.99999H182.171V3.99999H181.421C179.588 3.99999 177.421 4.83332 174.921 6.49999C172.421 8.16665 170.004 11.0833 167.671 15.25C165.504 19.25 164.171 23.3333 163.671 27.5L148.921 177H134.171ZM215.817 4.99999V174C215.817 174.5 216.151 174.833 216.817 175H222.817V177H187.317V175H193.317C193.984 174.833 194.317 174.5 194.317 174V4.99999C194.317 4.49999 193.984 4.16666 193.317 3.99999H187.317V1.99999H222.817V3.99999H216.817C216.151 4.16666 215.817 4.49999 215.817 4.99999ZM264.868 177H229.368V175H235.118C235.951 175 236.368 174.667 236.368 174V4.99999C236.368 4.33333 235.951 3.99999 235.118 3.99999H229.368V1.99999H288.868V61.5H286.618C285.618 53.6667 284.368 46.6667 282.868 40.5C281.535 35 279.785 29.3333 277.618 23.5C275.451 17.6667 272.868 13 269.868 9.5C266.868 5.83333 264.118 3.99999 261.618 3.99999H258.618C258.118 4.16666 257.868 4.49999 257.868 4.99999V84.5H258.868C262.368 84.5 266.035 81.6667 269.868 76C273.868 70.3333 276.035 62.3333 276.368 52H278.618V125.25H276.368C276.368 120.583 275.785 115.75 274.618 110.75C273.118 104.083 270.785 98.6667 267.618 94.5C264.451 90.3333 261.535 88.25 258.868 88.25H257.868V174C257.868 174.667 258.285 175 259.118 175H264.868V177ZM367.024 1.99999V66H364.524C364.524 60 363.691 52.25 362.024 42.75C360.524 33.0833 358.024 24.25 354.524 16.25C351.191 8.08333 347.691 3.99999 344.024 3.99999H343.024V174C343.024 174.5 343.358 174.833 344.024 175H350.024V177H314.524V175H320.524C321.191 174.833 321.524 174.5 321.524 174V3.99999H320.524C318.024 3.99999 315.274 6.41666 312.274 11.25C309.274 15.9167 306.524 23.8333 304.024 35C301.524 46 300.191 56.3333 300.024 66H297.524V1.99999H367.024ZM444.374 169.25L435.624 102.25H418.624L414.624 134.5C414.124 139.5 413.874 143.333 413.874 146C413.874 156.5 415.124 164 417.624 168.5C420.291 172.833 423.624 175 427.624 175H428.624V177H390.874V175H391.874C393.707 175 395.874 174.083 398.374 172.25C400.874 170.25 403.207 166.917 405.374 162.25C407.541 157.583 408.957 152.833 409.624 148L427.874 1.99999H443.624L465.624 166C465.957 168.333 466.791 170.417 468.124 172.25C469.624 174.083 471.457 175 473.624 175H476.374V177H437.374V175H439.874C441.041 175 442.124 174.583 443.124 173.75C444.124 172.75 444.541 171.25 444.374 169.25ZM426.874 35.5L418.874 99.25H435.124L426.874 35.5ZM516.323 177H480.823V175H486.573C487.407 175 487.823 174.667 487.823 174V4.99999C487.823 4.33333 487.407 3.99999 486.573 3.99999H480.823V1.99999H540.323V61.5H538.073C537.073 53.6667 535.823 46.6667 534.323 40.5C532.99 35 531.24 29.3333 529.073 23.5C526.907 17.6667 524.323 13 521.323 9.5C518.323 5.83333 515.573 3.99999 513.073 3.99999H510.073C509.573 4.16666 509.323 4.49999 509.323 4.99999V84.5H510.323C513.823 84.5 517.49 81.6667 521.323 76C525.323 70.3333 527.49 62.3333 527.823 52H530.073V125.25H527.823C527.823 120.583 527.24 115.75 526.073 110.75C524.573 104.083 522.24 98.6667 519.073 94.5C515.907 90.3333 512.99 88.25 510.323 88.25H509.323V174C509.323 174.667 509.74 175 510.573 175H516.323V177ZM613.935 178.75C610.601 178.75 607.601 178.167 604.935 177C602.268 175.667 599.185 173.5 595.685 170.5C592.185 167.333 589.351 165.75 587.185 165.75C584.518 165.75 582.351 166.917 580.685 169.25C579.018 171.417 578.018 174 577.685 177H575.435V98H577.685C581.185 124.833 585.935 144.583 591.935 157.25C598.101 169.75 605.268 176 613.435 176C615.435 176 617.351 175.333 619.185 174C621.185 172.667 622.768 170.5 623.935 167.5C625.101 164.5 625.685 161.417 625.685 158.25C625.685 155.917 625.351 152.917 624.685 149.25C624.185 145.583 623.018 141.25 621.185 136.25C619.351 131.25 617.268 126.583 614.935 122.25C612.768 117.75 606.018 105.917 594.685 86.75C583.351 67.5833 577.685 51.4167 577.685 38.25C577.685 31.0833 578.768 24.5 580.935 18.5C583.101 12.5 585.935 7.91666 589.435 4.75C593.101 1.58333 597.351 -1.07288e-06 602.185 -1.07288e-06C606.185 -1.07288e-06 610.101 1.41666 613.935 4.24999C617.768 6.91666 620.768 8.25 622.935 8.25C624.435 8.25 626.018 7.83333 627.685 7C629.351 5.99999 630.518 4.33332 631.185 1.99999H633.435V66H631.185L626.935 44C620.435 16.5 612.518 2.74999 603.185 2.74999C596.685 2.74999 593.435 6.74999 593.435 14.75C593.435 17.4167 593.685 20.8333 594.185 25C594.685 29 595.768 33.5833 597.435 38.75C599.268 43.9167 601.268 48.6667 603.435 53C605.601 57.1667 612.101 68.5 622.935 87C633.768 105.5 639.185 122.333 639.185 137.5C639.185 145.333 638.185 152.417 636.185 158.75C634.185 165.083 631.351 170 627.685 173.5C624.018 177 619.435 178.75 613.935 178.75ZM708.673 177L694.673 78L686.923 177H671.423L648.423 13C648.09 10.6667 647.256 8.58333 645.923 6.74999C644.59 4.91666 642.923 3.99999 640.923 3.99999H639.173V1.99999H673.173V3.99999C672.34 3.99999 671.59 4.49999 670.923 5.49999C670.423 6.33332 670.256 7.41665 670.423 8.74999L687.423 130.5L692.673 64L684.423 3.99999H680.173V1.99999H710.423V3.99999C708.423 3.99999 707.506 5.41666 707.673 8.25L724.673 130.5L733.673 38.75C734.506 30.9167 734.09 24.1667 732.423 18.5C730.923 12.6667 728.84 8.83333 726.173 7C723.673 5.16666 721.09 4.16666 718.423 3.99999V1.99999H756.673V3.99999H755.923C754.09 3.99999 751.923 4.83332 749.423 6.49999C746.923 8.16665 744.506 11.0833 742.173 15.25C740.006 19.25 738.673 23.3333 738.173 27.5L723.423 177H708.673ZM790.319 4.99999V174C790.319 174.5 790.653 174.833 791.319 175H797.319V177H761.819V175H767.819C768.486 174.833 768.819 174.5 768.819 174V4.99999C768.819 4.49999 768.486 4.16666 767.819 3.99999H761.819V1.99999H797.319V3.99999H791.319C790.653 4.16666 790.319 4.49999 790.319 4.99999ZM839.37 177H803.87V175H809.62C810.453 175 810.87 174.667 810.87 174V4.99999C810.87 4.33333 810.453 3.99999 809.62 3.99999H803.87V1.99999H863.37V61.5H861.12C860.12 53.6667 858.87 46.6667 857.37 40.5C856.037 35 854.287 29.3333 852.12 23.5C849.953 17.6667 847.37 13 844.37 9.5C841.37 5.83333 838.62 3.99999 836.12 3.99999H833.12C832.62 4.16666 832.37 4.49999 832.37 4.99999V84.5H833.37C836.87 84.5 840.537 81.6667 844.37 76C848.37 70.3333 850.537 62.3333 850.87 52H853.12V125.25H850.87C850.87 120.583 850.287 115.75 849.12 110.75C847.62 104.083 845.287 98.6667 842.12 94.5C838.953 90.3333 836.037 88.25 833.37 88.25H832.37V174C832.37 174.667 832.787 175 833.62 175H839.37V177ZM941.526 1.99999V66H939.026C939.026 60 938.193 52.25 936.526 42.75C935.026 33.0833 932.526 24.25 929.026 16.25C925.693 8.08333 922.193 3.99999 918.526 3.99999H917.526V174C917.526 174.5 917.86 174.833 918.526 175H924.526V177H889.026V175H895.026C895.693 174.833 896.026 174.5 896.026 174V3.99999H895.026C892.526 3.99999 889.776 6.41666 886.776 11.25C883.776 15.9167 881.026 23.8333 878.526 35C876.026 46 874.693 56.3333 874.526 66H872.026V1.99999H941.526ZM975.798 4.99999V174C975.798 174.5 976.131 174.833 976.798 175H982.798V177H947.298V175H953.298C953.965 174.833 954.298 174.5 954.298 174V4.99999C954.298 4.49999 953.965 4.16666 953.298 3.99999H947.298V1.99999H982.798V3.99999H976.798C976.131 4.16666 975.798 4.49999 975.798 4.99999ZM1021.6 3.99999H1018.6C1018.1 4.16666 1017.85 4.49999 1017.85 4.99999V84.5H1018.85C1022.35 84.5 1026.02 81.5833 1029.85 75.75C1033.85 69.9167 1036.02 61.4167 1036.35 50.25H1038.6V125.25H1036.35C1036.35 120.583 1035.77 115.75 1034.6 110.75C1033.1 104.083 1030.77 98.6667 1027.6 94.5C1024.43 90.3333 1021.52 88.25 1018.85 88.25H1017.85V174C1017.85 174.5 1018.18 174.833 1018.85 175H1021.6C1026.1 175 1030.43 170.75 1034.6 162.25C1038.93 153.583 1042.02 144.333 1043.85 134.5C1045.85 124.667 1046.93 116.75 1047.1 110.75H1049.85V177H989.349V175H995.099C995.932 175 996.349 174.667 996.349 174V4.99999C996.349 4.33333 995.932 3.99999 995.099 3.99999H989.349V1.99999H1048.85V61.5H1046.6C1045.6 53.6667 1044.35 46.6667 1042.85 40.5C1041.52 35 1039.77 29.3333 1037.6 23.5C1035.43 17.6667 1032.85 13 1029.85 9.5C1026.85 5.83333 1024.1 3.99999 1021.6 3.99999ZM1098.23 178.75C1094.9 178.75 1091.9 178.167 1089.23 177C1086.56 175.667 1083.48 173.5 1079.98 170.5C1076.48 167.333 1073.65 165.75 1071.48 165.75C1068.81 165.75 1066.65 166.917 1064.98 169.25C1063.31 171.417 1062.31 174 1061.98 177H1059.73V98H1061.98C1065.48 124.833 1070.23 144.583 1076.23 157.25C1082.4 169.75 1089.56 176 1097.73 176C1099.73 176 1101.65 175.333 1103.48 174C1105.48 172.667 1107.06 170.5 1108.23 167.5C1109.4 164.5 1109.98 161.417 1109.98 158.25C1109.98 155.917 1109.65 152.917 1108.98 149.25C1108.48 145.583 1107.31 141.25 1105.48 136.25C1103.65 131.25 1101.56 126.583 1099.23 122.25C1097.06 117.75 1090.31 105.917 1078.98 86.75C1067.65 67.5833 1061.98 51.4167 1061.98 38.25C1061.98 31.0833 1063.06 24.5 1065.23 18.5C1067.4 12.5 1070.23 7.91666 1073.73 4.75C1077.4 1.58333 1081.65 -1.07288e-06 1086.48 -1.07288e-06C1090.48 -1.07288e-06 1094.4 1.41666 1098.23 4.24999C1102.06 6.91666 1105.06 8.25 1107.23 8.25C1108.73 8.25 1110.31 7.83333 1111.98 7C1113.65 5.99999 1114.81 4.33332 1115.48 1.99999H1117.73V66H1115.48L1111.23 44C1104.73 16.5 1096.81 2.74999 1087.48 2.74999C1080.98 2.74999 1077.73 6.74999 1077.73 14.75C1077.73 17.4167 1077.98 20.8333 1078.48 25C1078.98 29 1080.06 33.5833 1081.73 38.75C1083.56 43.9167 1085.56 48.6667 1087.73 53C1089.9 57.1667 1096.4 68.5 1107.23 87C1118.06 105.5 1123.48 122.333 1123.48 137.5C1123.48 145.333 1122.48 152.417 1120.48 158.75C1118.48 165.083 1115.65 170 1111.98 173.5C1108.31 177 1103.73 178.75 1098.23 178.75Z" fill="#222222"/>
</svg>
